<?xml version="1.0" encoding="utf-8"?>
<!-- Generator: Adobe Illustrator 24.0.2, SVG Export Plug-In . SVG Version: 6.00 Build 0)  -->
<svg version="1.1" id="Layer_1" xmlns="http://www.w3.org/2000/svg" xmlns:xlink="http://www.w3.org/1999/xlink" x="0px" y="0px"
	 viewBox="0 0 230 35" style="enable-background:new 0 0 230 35;" xml:space="preserve">
<style type="text/css">
	.st0{display:none;}
	.st1{display:inline;fill:#F9F9F9;}
	.st2{display:inline;fill:#09599E;}
	.st3{display:inline;fill:#E59703;}
	.st4{display:inline;opacity:5.000000e-02;fill:#FFFFFF;enable-background:new    ;}
	.st5{display:inline;}
	.st6{fill:#00589F;}
	.st7{fill:#F9A51A;}
	.st8{display:none;fill:#4361C3;}
	.st9{display:none;fill:#FFAF38;}
	.st10{display:none;fill:#EB3636;}
	.st11{display:none;opacity:5.000000e-02;fill:#FFFFFF;enable-background:new    ;}
	.st12{fill:#F7F6F4;}
	.st13{fill:#053385;}
	.st14{fill:#199DDB;}
	.st15{opacity:0.12;fill:#FFFFFF;enable-background:new    ;}
	.st16{display:none;fill:#2AA0D0;}
	.st17{display:none;fill:#FFFFFF;}
</style>
<g class="st0">
	<rect y="9.3" class="st1" width="49.3" height="16.4"/>
	<path class="st2" d="M2.1,0h45.2c1.1,0,2.1,0.9,2.1,2.1v7.2H0V2.1C0,0.9,0.9,0,2.1,0z"/>
	<path class="st3" d="M0,25.7h49.3v7.2c0,1.1-0.9,2.1-2.1,2.1H2.1C0.9,34.9,0,34,0,32.9V25.7L0,25.7z"/>
	<path class="st4" d="M2.1,34.9C0.9,34.9,0,34,0,32.8V2.1C0,0.9,0.9,0,2.1,0h45.2c1.1,0,2.1,0.9,2.1,2.1"/>
	<g class="st5">
		<polygon class="st6" points="19,21.8 20.5,13.1 22.9,13.1 21.4,21.8 		"/>
		<path class="st6" d="M30,13.4c-0.5-0.2-1.2-0.4-2.1-0.4c-2.4,0-4,1.2-4,2.9c0,1.2,1.2,1.9,2.1,2.4c0.9,0.4,1.2,0.7,1.2,1.1
			c0,0.6-0.7,0.9-1.4,0.9c-0.9,0-1.4-0.2-2.2-0.5l-0.3-0.2l-0.3,2c0.6,0.3,1.6,0.5,2.6,0.5c2.5,0,4.1-1.2,4.1-3c0-1-0.6-1.7-2-2.4
			c-0.8-0.4-1.3-0.7-1.3-1.1c0-0.4,0.4-0.8,1.3-0.8c0.8,0,1.3,0.2,1.7,0.3l0.2,0.1L30,13.4"/>
		<path class="st6" d="M36,13.2h-1.8c-0.6,0-1,0.2-1.2,0.7l-3.5,8H32c0,0,0.4-1.1,0.5-1.3c0.3,0,2.7,0,3,0c0.1,0.3,0.3,1.3,0.3,1.3
			H38L36,13.2 M33.1,18.7c0.2-0.5,0.9-2.4,0.9-2.4s0.2-0.5,0.3-0.8l0.2,0.8c0,0,0.5,2.1,0.6,2.5L33.1,18.7L33.1,18.7z"/>
		<path class="st6" d="M17,13.2l-2.3,5.9l-0.3-1.2c-0.4-1.4-1.8-2.9-3.3-3.6l2.2,7.5h2.5l3.7-8.7L17,13.2"/>
		<path class="st7" d="M12.6,13.1H8.8l-0.1,0.2c3,0.7,4.9,2.5,5.7,4.5l-0.8-4C13.5,13.3,13.1,13.2,12.6,13.1"/>
	</g>
</g>
<path class="st8" d="M62.3,0h45.2c1.1,0,2.1,0.9,2.1,2.1v30.8c0,1.1-0.9,2.1-2.1,2.1H62.3c-1.1,0-2.1-0.9-2.1-2.1V2.1
	C60.3,0.9,61.2,0,62.3,0z"/>
<path class="st9" d="M90.8,10.3c4.1,0,7.4,3.3,7.4,7.4s-3.3,7.4-7.4,7.4s-7.4-3.3-7.4-7.4S86.7,10.3,90.8,10.3z"/>
<rect x="84.4" y="13.9" class="st9" width="5.1" height="1"/>
<path class="st10" d="M79,25.1c-4.1,0-7.4-3.3-7.4-7.4s3.3-7.4,7.4-7.4s7.4,3.3,7.4,7.4C86.5,21.8,83.1,25.1,79,25.1z"/>
<path class="st9" d="M84.4,21v-1h6.7v1H84.4z M84.4,13.9h6.7v1h-6.7V13.9z M90.6,16.9h-6.7v-1h6.7V16.9L90.6,16.9z M90.6,19h-6.7v-1
	h6.7V19L90.6,19z"/>
<path class="st11" d="M62.3,34.9h0.9L109.6,3V2.1c0-1.1-0.9-2.1-2.1-2.1H62.3c-1.1,0-2.1,0.9-2.1,2.1v30.8
	C60.3,34,61.2,34.9,62.3,34.9z"/>
<g>
	<path class="st12" d="M3.9,0.1h45.2c1.1,0,2.1,0.9,2.1,2.1v30.8c0,1.1-0.9,2.1-2.1,2.1H3.9c-1.1,0-2.1-0.9-2.1-2.1V2.2
		C1.8,1,2.8,0.1,3.9,0.1z"/>
	<path class="st13" d="M28.6,16.6l-4.7,6.9c-0.1,0.1-0.2,0.2-0.4,0.2h-1.4c-0.2,0-0.3-0.2-0.2-0.4l1.5-2.1l-1.5-4.7
		c-0.1-0.2,0.1-0.3,0.3-0.3h1.4c0.2,0,0.4,0.1,0.4,0.3l0.8,2.8l2-2.9c0.1-0.1,0.2-0.2,0.4-0.2h1.4C28.6,16.2,28.7,16.5,28.6,16.6z
		 M20,21.8h-1.3c-0.2,0-0.3-0.2-0.3-0.3v-0.4c0,0-0.7,0.8-1.9,0.8c-0.7,0-1.3-0.2-1.8-0.7c-0.5-0.6-0.7-1.4-0.5-2.2
		c0.3-1.7,1.6-2.9,3.2-2.9c0.7,0,1.4,0.2,1.7,0.6l0.1,0.2l0.1-0.4c0-0.1,0.1-0.2,0.3-0.2H21c0.2,0,0.3,0.2,0.3,0.3l-0.8,4.9
		C20.3,21.6,20.2,21.8,20,21.8z M18.7,18c-0.2-0.3-0.6-0.4-0.9-0.4c-0.8,0-1.4,0.6-1.6,1.4c-0.1,0.4,0,0.8,0.2,1
		c0.2,0.3,0.6,0.4,1,0.4c0.8,0,1.4-0.6,1.6-1.4C19,18.6,18.9,18.3,18.7,18z M11.2,19h-0.9c-0.2,0-0.4,0.2-0.4,0.4l-0.3,2.1
		c-0.1,0.2-0.2,0.4-0.4,0.4H7.8c-0.2,0-0.3-0.2-0.3-0.3l1.2-7.7c0.1-0.2,0.2-0.4,0.4-0.4h3c1,0,1.7,0.3,2.2,0.8
		c0.4,0.5,0.5,1.1,0.4,1.9C14.3,18.1,13.1,19,11.2,19z M12.3,15.4c-0.3-0.3-0.8-0.3-1.3-0.3h-0.2c-0.1,0-0.2,0.1-0.3,0.2l-0.3,2h0.5
		c0.8,0,1.6,0,1.7-1.1C12.5,15.9,12.4,15.6,12.3,15.4z"/>
	<path class="st14" d="M44.3,21.5c-0.1,0.2-0.2,0.4-0.4,0.4h-1.2c-0.2,0-0.3-0.2-0.3-0.3l1.2-7.8c0-0.1,0.1-0.2,0.3-0.2h1.4
		c0.2,0,0.3,0.2,0.3,0.3L44.3,21.5z M41,21.8h-1.3c-0.2,0-0.3-0.2-0.3-0.3l0.1-0.4c0,0-0.7,0.8-1.9,0.8c-0.7,0-1.3-0.2-1.8-0.7
		c-0.5-0.6-0.7-1.4-0.5-2.2c0.3-1.7,1.6-2.9,3.2-2.9c0.7,0,1.4,0.2,1.7,0.6l0.1,0.2l0.1-0.4c0-0.1,0.1-0.2,0.3-0.2h1.4
		c0.2,0,0.3,0.2,0.3,0.3l-0.8,4.9C41.4,21.6,41.2,21.8,41,21.8z M39.7,18c-0.2-0.3-0.6-0.4-0.9-0.4c-0.8,0-1.4,0.6-1.6,1.4
		c-0.1,0.4,0,0.8,0.2,1c0.2,0.3,0.6,0.4,1,0.4c0.8,0,1.4-0.6,1.6-1.4C40,18.6,40,18.3,39.7,18z M32.3,19h-0.9
		c-0.2,0-0.4,0.2-0.4,0.4l-0.4,2.2c0,0.2-0.2,0.3-0.3,0.3h-1.6c-0.2,0-0.3-0.2-0.3-0.3l1.2-7.7c0.1-0.2,0.2-0.4,0.4-0.4h3
		c1,0,1.7,0.3,2.2,0.8c0.4,0.5,0.5,1.1,0.4,1.9C35.4,18.1,34.2,19,32.3,19z M33.3,15.4c-0.3-0.3-0.8-0.3-1.3-0.3h-0.2
		c-0.1,0-0.2,0.1-0.3,0.2l-0.3,2h0.5c0.8,0,1.6,0,1.7-1.1C33.5,15.9,33.5,15.6,33.3,15.4z"/>
	<path class="st15" d="M4.7,35c-1.5,0-2.8-1.3-2.8-2.9V3c0-1.6,1.2-2.9,2.8-2.9h43.7c1.5,0,2.8,1.3,2.8,2.9"/>
</g>
<path class="st16" d="M182.2,0.1h45.2c1.1,0,2.1,0.9,2.1,2.1V33c0,1.1-0.9,2.1-2.1,2.1h-45.2c-1.1,0-2.1-0.9-2.1-2.1V2.2
	C180.1,1,181.1,0.1,182.2,0.1z"/>
<path class="st16" d="M214,13.4h-6.2c-0.3,0-0.5,0.2-0.5,0.5c0-0.3-0.3-0.5-0.5-0.5h-3c-0.2,0-0.4,0.1-0.5,0.3l-1.6,4.1l-2.1-4.2
	c-0.1-0.2-0.3-0.3-0.5-0.3h-2.7c-0.3,0-0.5,0.2-0.5,0.5v4.8l-2.3-5c-0.1-0.2-0.3-0.3-0.5-0.3h-2.7c-0.2,0-0.4,0.1-0.5,0.3l-3.5,7.7
	c-0.1,0.2-0.1,0.4,0.1,0.5c0.1,0.2,0.3,0.3,0.4,0.3h2.2c0.2,0,0.4-0.1,0.5-0.3l0.8-1.7h2.8l0.7,1.7c0.1,0.2,0.3,0.3,0.5,0.3h4.1
	c0.3,0,0.5-0.2,0.5-0.5v-2.9l1.3,3.1c0.1,0.2,0.3,0.3,0.5,0.3h1.6c0.2,0,0.4-0.1,0.5-0.3l1.3-3.2v3c0,0.3,0.2,0.5,0.5,0.5h2.1
	c0.3,0,0.5-0.2,0.5-0.5c0,0.3,0.3,0.5,0.5,0.5h6.2c0.3,0,0.5-0.2,0.5-0.5v-1.5c0-0.3-0.2-0.5-0.5-0.5h-3.6v-0.5h3.5
	c0.3,0,0.5-0.2,0.5-0.5V17c0-0.3-0.2-0.5-0.5-0.5h-3.5V16h3.6c0.3,0,0.5-0.2,0.5-0.5V14C214.5,13.7,214.3,13.4,214,13.4z
	 M191.5,17.5l0.5-1l0.5,1H191.5z"/>
<path class="st16" d="M222.6,20.1l-2.1-2.2l2.1-2.2c0.1-0.1,0.2-0.2,0.2-0.4V14c0-0.2-0.1-0.3-0.2-0.4c-0.1-0.1-0.2-0.2-0.4-0.2
	h-1.4c-0.2,0-0.3,0.1-0.4,0.2l-1.8,2.2l-1.8-2.1c-0.1-0.2-0.2-0.2-0.4-0.2H215c-0.3,0-0.5,0.2-0.5,0.5v7.7c0,0.3,0.2,0.5,0.5,0.5
	h1.2c0.2,0,0.3-0.1,0.4-0.2l2-2.1l1.9,2.1c0.1,0.1,0.3,0.2,0.4,0.2h1.3c0.2,0,0.3-0.1,0.4-0.2c0.1-0.1,0.2-0.2,0.2-0.4v-1.2
	C222.7,20.3,222.7,20.2,222.6,20.1z M215.6,19.1v-2.5l1.2,1.2L215.6,19.1z"/>
<polygon class="st17" points="190.7,18.1 193.2,18.1 191.9,15.3 "/>
<polygon class="st17" points="215,20.4 217.4,17.9 215,15.3 "/>
<path class="st17" d="M223,19.7l-1.7-1.8L223,16c0.2-0.2,0.3-0.5,0.3-0.7V14c0-0.3-0.1-0.5-0.3-0.7s-0.5-0.3-0.7-0.3h-1.4
	c-0.3,0-0.6,0.1-0.8,0.4l-1.4,1.6l-1.4-1.6c-0.2-0.2-0.5-0.4-0.8-0.4H215c-0.2,0-0.4,0.1-0.5,0.2c-0.2-0.1-0.3-0.2-0.5-0.2h-6.2
	c-0.2,0-0.4,0.1-0.5,0.2c-0.2-0.1-0.3-0.2-0.5-0.2h-3c-0.4,0-0.8,0.3-1,0.7l-1.2,3.1l-1.5-3.1c-0.2-0.4-0.5-0.6-0.9-0.6h-2.6
	c-0.6,0-1,0.5-1,1v2.4l-1.3-2.8c-0.2-0.4-0.5-0.6-0.9-0.6h-2.7c-0.4,0-0.8,0.3-0.9,0.6l-3.5,7.7c-0.2,0.3-0.1,0.7,0.1,1
	c0.2,0.3,0.5,0.5,0.9,0.5h2.2c0.4,0,0.8-0.3,0.9-0.6l0.6-1.4h2.2l0.6,1.4c0.2,0.4,0.5,0.7,1,0.7h4.1c0.6,0,1-0.5,1-1v-0.4l0.3,0.8
	c0.2,0.4,0.5,0.6,0.9,0.6h1.6c0.4,0,0.8-0.3,1-0.6l0.3-0.8v0.3c0,0.6,0.5,1,1,1h2.1c0.2,0,0.4-0.1,0.5-0.2c0.2,0.1,0.3,0.2,0.5,0.2
	h6.2c0.2,0,0.4-0.1,0.5-0.2c0.2,0.1,0.3,0.2,0.5,0.2h1.2c0.3,0,0.6-0.1,0.8-0.3l1.6-1.7l1.6,1.7c0.2,0.2,0.5,0.3,0.8,0.3h1.2
	c0.3,0,0.5-0.1,0.7-0.3c0.2-0.2,0.3-0.5,0.3-0.7v-1.2C223.2,20.2,223.1,19.9,223,19.7z M206.8,21.7h-2.1v-5.6l-2.3,5.6h-1.6
	l-2.3-5.5v5.5h-4.1l-0.8-2.1h-3.5l-0.9,2.1H187l3.5-7.7h2.7l3.2,7.2V14h2.6l2.6,5.2l2.1-5.2h3L206.8,21.7L206.8,21.7L206.8,21.7z
	 M214,15.5h-4.1V17h4v1.5h-4V20h4.1v1.5h-6.2V14h6.2V15.5z M221,21.7l-2.4-2.5l-2.4,2.5H215V14h1.4l2.2,2.6l2.2-2.6h1.4v1.3
	l-2.4,2.6l2.4,2.6v1.2H221L221,21.7z"/>
<path class="st11" d="M182.2,35h0.9l46.3-31.9V2.2c0-1.1-0.9-2.1-2.1-2.1h-45.2C181,0.1,180,1,180,2.2V33
	C180.1,34.1,181.1,35,182.2,35z"/>
</svg>
