<?xml version="1.0" encoding="utf-8"?>
<!-- Generator: Adobe Illustrator 24.0.2, SVG Export Plug-In . SVG Version: 6.00 Build 0)  -->
<svg version="1.1" id="Layer_1" xmlns="http://www.w3.org/2000/svg" xmlns:xlink="http://www.w3.org/1999/xlink" x="0px" y="0px"
	 viewBox="0 0 130 145" style="enable-background:new 0 0 130 145;" xml:space="preserve">
<style type="text/css">
	.st0{fill:#FAF1EF;}
	.st1{display:none;}
	.st2{display:inline;}
	.st3{fill:#010060;}
	.st4{fill:#233D5F;}
	.st5{fill:#FFFFFF;}
	.st6{fill:#E54750;}
	.st7{fill:#01005F;}
	.st8{fill:#EBAF53;}
	.st9{opacity:0.1;fill:#233D5F;enable-background:new    ;}
	.st10{fill:#E4A7A0;}
	.st11{fill:#06065C;}
	.st12{fill:#E8AA50;}
</style>
<path class="st0" d="M97.1,95.1C81.3,94,69.6,82.2,59.4,71.3c-3.9-4.2-8.7-7.6-13.8-10.3c-5.7-3.1-11.9-5.5-18.3-6.9
	c-8.4-1.8-17.4-1.6-25,2c-1.1,4.7-1.6,9.5-1.6,14.5c0,35.6,28.9,64.5,64.5,64.5c29.4,0,54.1-19.6,61.9-46.5
	C117.7,93,107.3,95.8,97.1,95.1z"/>
<path class="st0" d="M30,52.1c11.6,2.9,23.4,8.8,31.6,17.7c10,10.8,21.7,22.5,37.4,22.8c10,0.2,20-2.8,29-7.2
	c1.1-4.7,1.7-9.7,1.7-14.8c0-35.6-28.9-64.5-64.5-64.5c-29.5,0-54.3,19.8-62,46.7C11.6,49.6,21.2,49.9,30,52.1z"/>
<g>
	<g class="st1">
		<g class="st2">
			<path class="st3" d="M86.4,59.8l-1.6-0.8c-0.3-0.2-0.7,0-0.8,0.3l0,0c-0.1,0.3,0,0.5,0.2,0.7l1.6,0.9c0.3,0.2,0.6,0.1,0.8-0.2
				l0-0.1C86.8,60.2,86.7,59.9,86.4,59.8z"/>
			<g>
				<polygon class="st4" points="102.2,98.2 103.1,99.7 106.3,97.3 105.1,96.2 				"/>
				<g>
					<circle class="st3" cx="21.3" cy="117.1" r="16.5"/>
					<circle class="st5" cx="21.3" cy="117.1" r="8.7"/>
					<circle class="st3" cx="21.3" cy="117.1" r="2.8"/>
				</g>
				<g>
					<circle class="st3" cx="113.4" cy="117.4" r="16.5"/>
					<circle class="st5" cx="113.4" cy="117.4" r="8.7"/>
					<circle class="st3" cx="113.4" cy="117.4" r="2.8"/>
				</g>
				<path class="st6" d="M107.4,93.7c0,0.9-0.5,1.7-1.3,2c-5.3,2.5-8.4,7.7-8.4,7.7C90,119,87.4,117,85,118.2c-2,1-35.3,0.6-44,0.5
					c-1,0-1.6-1-1.2-1.9l1.1-2.4l-40.7-0.1c1.2-6.3,3.9-11.3,6.9-15.4c1.6-2.2,3.4-4.1,5.1-5.7c5.2-4.8,10-7,10-7l38-0.6
					c0.2,0,0.3,0,0.4,0c0.1,0,0.2,0,0.2,0c0,0,0,0,0.1,0c1.2,0.3,1.1,1.6,1.1,1.6s-7.6,7-8.2,14.9c0,0.1,0,0.2,0,0.3
					c-0.3,5.5,4,10.1,9.4,10.4c5.9,0.3,17.9,0.7,20.7-0.8c1.6-0.9,2.7-1.5,3.9-2.6c0,0,0,0,0,0c0.9-0.9,1.8-2,2.9-3.6
					c0.8-1.2,1.7-2.8,2.8-4.8c3.7-6.8,2.5-11.8,1.6-15.1c-0.2-0.6-0.3-1.1-0.4-1.6c-0.1-0.3-0.2-0.8-0.5-1.4
					c-1.4-3.3-5.2-10.1-7.4-15.2c0,0,0,0,0,0c-0.2-0.5-0.4-1-0.6-1.5c0,0,0,0,0,0c0-0.1,0-0.1,0-0.1c-0.6-1.6-1-2.9-1-3.7
					c0-0.2,0-0.4,0.1-0.6c1.2-3,2.5-3.2,2.5-3.2l4.7,8.5l11.2,21C108.9,90.8,107.4,93.7,107.4,93.7z"/>
				<path class="st6" d="M126.5,105.8c-3.7,0.3-9.3-0.1-12.2,1.5c-4.9,2.7-10.2,10-20.3,8.5c0,0,2.7-12.9,12.3-18.4
					c9.6-5.5,21.2,2.1,23.4,6.1C130.6,105.1,129,105.6,126.5,105.8z"/>
				<path class="st7" d="M63.1,83.8L63.1,83.8c-0.2,1.1-1.2,1.9-2.3,2l-39.8,0.8c-0.5,0-1-0.1-1.3-0.4c-0.2-0.1-0.3-0.2-0.4-0.3
					c-0.3-0.3-0.5-0.7-0.6-1.1l-0.2-0.9c-0.4-1.5,0.8-3,2.4-3l40,0.1C62.3,80.8,63.4,82.2,63.1,83.8z"/>
				<path class="st6" d="M41,114.4l-40.7-0.1c0,0,6.1-22.2,25.2-21.8c0.4,0,0.9,0,1.3,0.1C46.9,94.2,41,114.4,41,114.4z"/>
				<path class="st3" d="M87,63.3l-4.9,3.2c-0.4,0.3-0.5,0.8-0.2,1.3l0,0c0.3,0.4,0.8,0.5,1.2,0.3l5-3c0.5-0.3,0.6-0.9,0.3-1.3
					l-0.2-0.3C88,63.1,87.4,63,87,63.3z"/>
				<path class="st8" d="M93.4,67.1c-0.2,0.1-0.4,0.1-0.6,0.1l-1.4,0c0,0-2.9-1.6-2.3-6.4l1.3-0.9c0.1-0.1,0.3-0.1,0.4-0.2
					c0.7-0.2,1.4,0.2,1.6,0.9l1.7,4.8C94.4,66.1,94,66.8,93.4,67.1z"/>
				<path class="st3" d="M93.4,67.1c-1-4.9-2.7-7.3-2.7-7.3l0,0c0.7-0.2,1.4,0.2,1.6,0.9l1.7,4.8C94.4,66.1,94,66.8,93.4,67.1z"/>
				<path class="st4" d="M12.3,93.2c-1.7,1.6-3.5,3.5-5.1,5.7l0,0c-1,0-1.6-1.1-1-1.9l2.3-3.3c0.2-0.3,0.6-0.5,1-0.5L12.3,93.2z"/>
				<path class="st9" d="M61,85.7l-0.3,0c0,0,0,0,0,0C60.9,85.6,61.2,85.4,61,85.7L61,85.7z"/>
			</g>
			<path class="st3" d="M0.7,114.4L0,114.2c0-0.1,1.5-4.9,4.7-10c4.2-6.7,9.2-10.6,14.7-11.3c9-1.2,15.2,0,18.8,3.7
				c3.5,3.6,4.6,9.6,3.3,17.9l-0.7-0.1c1.3-8.1,0.2-13.9-3.1-17.3c-3.4-3.5-9.4-4.6-18.2-3.5c-6.6,0.9-11.3,6.5-14.1,11
				C2.2,109.5,0.7,114.3,0.7,114.4z"/>
			
				<rect x="29" y="95.7" transform="matrix(2.799989e-03 -1 1 2.799989e-03 -73.1406 131.4832)" class="st3" width="0.7" height="13.4"/>
			
				<rect x="29" y="98.7" transform="matrix(2.799989e-03 -1 1 2.799989e-03 -76.1928 134.5218)" class="st3" width="0.7" height="13.4"/>
			
				<rect x="29" y="101.8" transform="matrix(2.799989e-03 -1 1 2.799989e-03 -79.2532 137.5578)" class="st3" width="0.7" height="13.4"/>
			<path class="st3" d="M61.1,85.7c-1.2,1.1-2.4,2.3-3.5,3.5c-1.1,1.2-2.2,2.4-3.2,3.7c-0.5,0.7-1,1.3-1.4,2
				c-0.5,0.7-0.9,1.4-1.2,2.1c-0.7,1.4-1.3,3-1.3,4.6c0,1.6,0.1,3.3,0.7,4.8c0.3,0.7,0.6,1.5,1.2,2.1c0.5,0.6,1.1,1.1,1.8,1.6
				c0.7,0.4,1.4,0.8,2.2,1.1c0.8,0.3,1.6,0.5,2.4,0.8c1.6,0.4,3.2,0.8,4.9,1.1c-1.7-0.2-3.3-0.4-4.9-0.8c-1.6-0.4-3.3-0.8-4.8-1.7
				c-0.2-0.1-0.4-0.2-0.5-0.3c-0.2-0.1-0.3-0.3-0.5-0.4l-0.2-0.2c-0.1-0.1-0.2-0.1-0.2-0.2l-0.2-0.2l-0.2-0.2
				c-0.6-0.7-1-1.4-1.3-2.2c-0.3-0.8-0.5-1.7-0.6-2.5c-0.1-0.8-0.2-1.7-0.2-2.5l0-0.3l0-0.3l0-0.3l0-0.3l0-0.3c0-0.1,0-0.2,0.1-0.3
				c0-0.2,0.1-0.4,0.2-0.6c0.3-0.8,0.6-1.6,1-2.4c0.4-0.7,0.9-1.5,1.3-2.1c0.5-0.7,1-1.4,1.5-2c1.1-1.3,2.2-2.5,3.4-3.6
				C58.5,87.8,59.8,86.7,61.1,85.7z"/>
			<path class="st3" d="M88.7,113.3l-0.5-0.5c10.4-11.5,10.5-22,8.7-28.8c-1.9-7.4-6.4-12.1-6.4-12.2l0.5-0.5c0,0,4.6,4.9,6.6,12.4
				c1.2,4.4,1.2,8.9,0.2,13.4C96.5,102.7,93.4,108.1,88.7,113.3z"/>
			<path class="st3" d="M127.1,104c-2.8-3.3-6.4-5-10.6-5.2c-3.2-0.1-5.6,0.8-5.6,0.8l-0.2-0.7c0.1,0,2.5-0.9,5.9-0.8
				c3.1,0.1,7.5,1.1,11.2,5.4L127.1,104z"/>
		</g>
		<g class="st2">
			<path class="st5" d="M123.8,127l-0.5-0.6c2.9-2.7,4.4-5.7,4.5-8.9c0-5.4-4.4-9.6-4.4-9.6l0.5-0.6c0.2,0.2,4.7,4.4,4.7,10.2
				C128.5,120.9,127,124.1,123.8,127z"/>
		</g>
		<g class="st2">
			<path class="st5" d="M24.1,132.1l-0.2-0.7c0.1,0,11.7-4,11.8-14.9l0.8,0C36.4,127.9,24.3,132.1,24.1,132.1z"/>
		</g>
	</g>
	<g>
		<g>
			<path class="st10" d="M62.2,23.6c0,0,0.8-0.8,1.2-2.3c0.1-0.4,0.2-0.8,0.2-1.3c0.1-2.3,8.5-1.9,8.5-1.9s0.3,4.5,1.8,5.5
				C75.4,24.6,65.5,30.3,62.2,23.6z"/>
			<g>
				<path class="st10" d="M71,133.5c0,0,0-7.1-0.3-8.6c-0.3-1.4,5,0.9,5,0.9s0,7.1,0.5,8.6C76.2,134.3,72.5,133.3,71,133.5z"/>
				<path class="st6" d="M77.9,142.3c-0.6,1.9-5.8,1.5-6.5,0.4c-0.3-0.5-0.6-2-0.8-3.7c0,0,0,0,0,0c0-0.1,0-0.2,0-0.3c0,0,0,0,0,0v0
					c-0.1-1.8-0.1-3.7,0.2-4.7c0,0-0.1-1.8,1.7-1.7c1.8,0.1,3.1,0,3.4,0.9c0.3,0.9,0.8,1.4,0.8,1.6c0,0.2,0.7,2.5,1.1,4.7
					c0,0,0,0,0,0C78,140.6,78.1,141.6,77.9,142.3z"/>
				<path class="st11" d="M77.9,142.3c-0.6,1.9-5.8,1.5-6.5,0.4c-0.3-0.5-0.6-2-0.8-3.7c0.1,0.8,0.5,2.8,2.1,3.3
					c2,0.6,4.9,0.8,5.2-2.9C78,140.6,78.1,141.6,77.9,142.3z"/>
				<path class="st5" d="M75.8,136.1c-2.3-0.7-4.4,0-4.4,0l-0.2-0.5c0.1,0,2.3-0.7,4.7,0L75.8,136.1z"/>
				<path class="st5" d="M75.9,137.5c-2.3-0.7-4.4,0-4.4,0l-0.2-0.5c0.1,0,2.3-0.7,4.7,0L75.9,137.5z"/>
				<path class="st5" d="M76.1,139c-2.3-0.7-4.4,0-4.4,0l-0.2-0.5c0.1,0,2.3-0.7,4.7,0L76.1,139z"/>
				<path class="st11" d="M77.7,140.1c-3.6-1.3-7,0-7,0l-0.1-0.1c0,0,3.5-1.3,7.1,0L77.7,140.1z"/>
			</g>
			<g>
				<path class="st10" d="M53.5,131.5c0,0,1.1-3.6,0.7-7.5c-0.4-3.8,4.5-1.5,5.2-1.3c0.6,0.3-0.3,8.2,0,10
					C59.6,134.5,53.8,133.8,53.5,131.5z"/>
				<path class="st6" d="M60,132.7v2.2c0,1,0,2,0,2s-6.4,2.5-8,2.7c-1.6,0.2-5.8,2-8-0.5c0,0,0-0.5,0.2-1.2c0.2-0.6,0.5-1.3,1-1.7
					c1.1-0.8,6.9-4.4,7.3-5c1.1-1.4,3.4-0.7,3.6,0c0.2,0.6,1.2,1.1,2,0.6C58.9,131.4,60,132.2,60,132.7z"/>
				<path class="st11" d="M60,134.9c0,1,0,2,0,2s-6.4,2.5-8,2.7c-1.6,0.2-5.8,2-8-0.5c0,0,0-0.5,0.2-1.2c0.7,0.6,2.1,1.4,4,1.1
					C50.7,138.7,57.8,135.8,60,134.9z"/>
				<path class="st5" d="M50.6,136.5c-1.6-1.2-3-1.6-3.3-1.6l0.8-0.5c0.1,0,1.2,0.3,3,1.5L50.6,136.5z"/>
				<path class="st5" d="M52.1,135.2c-2.2-1.5-3-1.5-3.1-1.5c0,0,0.7-0.4,0.7-0.5c0,0,1,0.3,2.7,1.4L52.1,135.2z"/>
				<path class="st5" d="M53.6,134.1c-0.9-1-3-1.4-3-1.4l0.6-0.4c0.1,0,1.8,0.1,2.9,1.4L53.6,134.1z"/>
				<path class="st11" d="M49.5,138.8c-0.9-2.6-3.8-2.8-3.8-2.9l0-0.1c0,0,3,0.3,3.9,2.9L49.5,138.8z"/>
			</g>
			<path class="st12" d="M53,69.7l-1,27.8l1,29.5c0,0,3.1,3,8.6,0l1.8-28.8L66,81.6l0.6,16.7l2.7,29.4c0,0,1.9,2.6,8.5,0l-0.1-29.9
				l2.6-28L53,69.7L53,69.7z"/>
			<path class="st11" d="M53,69.7c0,0,18.4,3.9,27.3,0c0,0-0.4-25.1,0.5-28.6l2.4,3.1c0,0,7.5-0.8,7.5-3.8c0,0-4-11.3-8.4-14.4
				l-8.7-3.5c0,0-3.9,3.7-7.3,2.6c-3.4-1.1-3.6-2.2-3.6-2.2s-9,3.1-10.1,4.6c-1.1,1.6-4.6,12.4-4.6,12.4s0.2,2.9,6.6,3.9L53,69.7z"
				/>
			<path class="st10" d="M73.4,13.5c-0.8,2.4-1.2,4.6-1.2,4.6c-0.2,0.9-1.4,1.7-2.9,2.1c-1.8,0.5-4,0.5-5.6-0.3
				c-0.4-0.2-0.8-0.5-1.1-0.9c-2-2.8-2-10.2-1.3-13.5c0.7-3.8,4.5-4.2,6.9-4.1c2.5,0.1,5.3,2.5,5.9,4.5C74.7,8,74.2,11.1,73.4,13.5z
				"/>
			<path class="st12" d="M60.2,6c0,0-0.6-4.7,5.9-5.5c3.7-0.5,6.5,1.5,8,4.3c1.4,2.8,0.7,4.8,0.7,4.8l-5.5-0.8
				C69.3,8.8,67.1,5.9,60.2,6z"/>
			<g>
				<g>
					<rect x="40.4" y="39.1" class="st5" width="30.9" height="22.3"/>
					<path class="st3" d="M71.7,61.8H40V38.7h31.7C71.7,38.7,71.7,61.8,71.7,61.8z M40.8,61h30.2V39.5H40.8V61z"/>
				</g>
				<rect x="40.4" y="42.2" class="st3" width="30.9" height="0.4"/>
				<rect x="40.4" y="45.5" class="st3" width="30.9" height="0.4"/>
				<rect x="40.4" y="48.7" class="st3" width="30.9" height="0.4"/>
				<rect x="40.4" y="51.9" class="st3" width="30.9" height="0.4"/>
				<rect x="40.4" y="55.2" class="st3" width="30.9" height="0.4"/>
				<rect x="40.4" y="58.4" class="st3" width="30.9" height="0.4"/>
				<g>
					<polygon class="st5" points="71.3,39.1 74,38.4 74,59.3 71.3,61.4 					"/>
					<path class="st3" d="M70.9,62.1V38.8l3.5-0.8v21.6L70.9,62.1z M71.7,39.4v21.2l1.9-1.5V38.9L71.7,39.4z"/>
				</g>
				<g>
					<path class="st5" d="M71.3,42.4l2.7-1L71.3,42.4z"/>
					
						<rect x="71.2" y="41.5" transform="matrix(0.9348 -0.3551 0.3551 0.9348 -10.1483 28.5315)" class="st3" width="2.9" height="0.8"/>
				</g>
				<g>
					<path class="st5" d="M71.3,45.6l2.7-1L71.3,45.6z"/>
					
						<rect x="71.2" y="44.7" transform="matrix(0.9348 -0.3551 0.3551 0.9348 -11.2655 28.7368)" class="st3" width="2.9" height="0.8"/>
				</g>
				<g>
					<path class="st5" d="M71.3,48.9l2.7-1L71.3,48.9z"/>
					
						<rect x="71.2" y="48" transform="matrix(0.9347 -0.3553 0.3553 0.9347 -12.4351 28.9696)" class="st3" width="2.9" height="0.8"/>
				</g>
				<g>
					<path class="st5" d="M71.3,52.1l2.7-1L71.3,52.1z"/>
					
						<rect x="71.2" y="51.2" transform="matrix(0.9346 -0.3557 0.3557 0.9346 -13.613 29.2181)" class="st3" width="2.9" height="0.8"/>
				</g>
				<g>
					<path class="st5" d="M71.3,55.3l2.7-1.3L71.3,55.3z"/>
					
						<rect x="71.1" y="54.2" transform="matrix(0.8939 -0.4482 0.4482 0.8939 -16.7698 38.3556)" class="st3" width="3" height="0.8"/>
				</g>
				<g>
					<path class="st5" d="M71.3,58.6L74,57L71.3,58.6z"/>
					
						<rect x="71.1" y="57.4" transform="matrix(0.8642 -0.5031 0.5031 0.8642 -19.2067 44.3977)" class="st3" width="3.1" height="0.8"/>
				</g>
			</g>
			<path class="st10" d="M83.3,44l1.6,3l-9.5,2.8l0.2,3.6c0,0,9.3-0.3,10.9-0.6c1.6-0.4,6.6-0.5,7-2.1c0.4-1.7-3-9.2-3-9.2
				S86,43.5,83.3,44z"/>
			<path class="st12" d="M82.2,43c0,0,6.7-2.1,7.9-3.9l1.2,2.3c0,0-1.4,2.4-8.1,3.7L82.2,43z"/>
			<path class="st11" d="M69.3,20.2c-0.9,1.5-5.8,1-5.8,1c0.1-0.4,0.2-0.8,0.2-1.3C65.3,20.7,67.5,20.7,69.3,20.2z"/>
			<path class="st11" d="M69.3,8.8c0,0-1.2-2.4-3.6-2.9c-1.3-0.2-2.7-0.4-3.8-0.4l0,0l0,0c-1-0.1-1.7-0.1-1.7-0.1S57.4,5,56.8,6.3
				s0,1.8,0,1.8l0,0h4.1c0.4-1,1.4-1.7,2.4-1.7c0.1,0,0.2,0,0.4,0C66.8,7.1,69.3,8.8,69.3,8.8z M56.8,8.1c0,0,0-0.2,0.1-0.5
				C56.8,7.7,56.8,7.9,56.8,8.1z"/>
			<path class="st11" d="M72.6,9.3c0-6.3-5.1-8.6-5.5-8.8c-2.8,0.7-3.6,5-3.6,5.1l-0.1,0c0,0,0.8-4.5,3.7-5.2l0,0l0,0
				c0.1,0,5.6,2.3,5.6,8.9C72.7,9.3,72.6,9.3,72.6,9.3z"/>
			<rect x="66" class="st11" width="1.6" height="0.7"/>
			<path class="st11" d="M63.4,14.8c-0.2,0-0.4,0-0.6-0.1c-0.6-0.3,0.3-3.1,0.5-3.7l0.1,0c-0.4,1.3-1,3.3-0.6,3.5c0.5,0.3,1,0,1,0
				l0.1,0.1C63.9,14.6,63.7,14.8,63.4,14.8z"/>
			<g>
				<path class="st6" d="M67.6,16.5c1.2,0,2.4-1.1,2.3-2.3c-0.1-1.2-1-2.3-2.3-2.3c-1.2,0-2.4,1.1-2.3,2.3
					C65.3,15.4,66.3,16.5,67.6,16.5L67.6,16.5z"/>
			</g>
			<path class="st11" d="M66,82.1c-1.8-1.3-1-6.7-1-7l0.1,0c0,0.1-0.8,5.6,0.9,6.8L66,82.1z"/>
			<path class="st11" d="M77.1,78.7c-3.8-2.9-3.3-5.2-3.3-5.3l0.4,0.1L74,73.5l0.2,0.1c0,0-0.5,2.1,3.1,4.8L77.1,78.7z"/>
			<polygon class="st11" points="76.7,127.3 75.5,100.3 78,80.5 78.1,80.5 75.7,100.3 76.9,127.3 			"/>
			<polygon class="st11" points="60.5,127.3 60.4,127.3 61.7,100.9 63.9,82 64,82 61.8,101 			"/>
			<path class="st11" d="M69.6,72.7c-7.3,0-14.9-1.1-15-1.1l0-0.1c0.2,0,17.2,2.5,24.8,0l0,0.1C76.9,72.4,73.3,72.7,69.6,72.7z"/>
			<path class="st10" d="M45.1,47.8C45,47.1,42,47.6,42,47.6l-1.8-0.1v-1.3c-2.1,1.4-1.5,2.6-1.6,3.9c-0.1,1.3,0.8,1.6,0.8,1.6
				l2.2,0.2c0,0,2.5-0.3,2.3-0.8c0-0.1-0.2-0.2-0.5-0.2c0.8-0.2,1.5-0.4,1.4-0.7c-0.1-0.2-0.8-0.3-1.5-0.3c0.8-0.2,1.6-0.4,1.5-0.7
				c-0.1-0.3-1-0.3-1.8-0.3C43.9,48.6,45.3,48.2,45.1,47.8z"/>
		</g>
		<polygon class="st12" points="69.8,39.1 65.9,39.1 66.9,27.4 68.7,27.4 		"/>
		<rect x="56.6" y="36.2" class="st12" width="6.2" height="1.5"/>
		<polygon class="st11" points="67.6,26.1 69.3,23.1 70.3,26.8 73.6,22.5 72.5,20.6 68.8,23 		"/>
		<polygon class="st11" points="67.6,26.1 67.2,22.8 63.1,21.3 61.5,23.1 65.5,25.3 66.4,23.7 		"/>
		<polygon class="st12" points="66,24.5 66.9,27.4 68.7,27.4 69.7,24.5 		"/>
		<polygon class="st12" points="68.5,24.5 69.3,23.1 69.7,24.5 		"/>
		<polygon class="st12" points="66.8,24.5 66.4,23.7 66,24.5 		"/>
		<polygon class="st5" points="70.3,27 69.7,24.9 69.8,24.8 70.4,26.6 73.5,22.4 73.6,22.5 		"/>
		<polygon class="st5" points="65.5,25.4 61.6,23.2 61.7,23.1 65.5,25.2 66.4,23.7 66.5,23.8 		"/>
		<path class="st5" d="M80.4,45.3L77.8,35l3,6.1L80.4,45.3z M78.3,36.3l2.1,8.2l0.3-3.4L78.3,36.3z"/>
		<path class="st5" d="M68,69.3c-6.9,0-13.3-1-13.4-1.1l0-0.1c0.1,0,14.7,2.4,23.4,0l0,0.1C75.1,69,71.5,69.3,68,69.3z"/>
		<polygon class="st11" points="84.9,47 88.5,48.3 84.4,45.7 		"/>
		<path class="st11" d="M89.1,51.9C89.1,51.9,89.1,51.9,89.1,51.9l0-0.1c0,0,2.4,0.1,3.2-1.6c0.8-1.6-0.6-3.2-0.6-3.2l0.1-0.1
			c0,0,1.5,1.6,0.7,3.3C91.6,51.8,89.4,51.9,89.1,51.9z"/>
		<path class="st10" d="M75.4,49.8c0,0-1.8-0.4-3.5-0.4l0,0c0,0-2.6-0.3-2.8,0c-0.2,0.2,0.4,0.4,0.6,0.5c0,0,0,0-0.1,0L68.5,50
			c0,0-3-0.4-3.2,0.2c-0.1,0.4,1.2,0.8,2.1,1c-0.8,0-1.7,0-1.8,0.3c-0.1,0.3,0.7,0.5,1.5,0.7c-0.7,0-1.4,0.1-1.5,0.3
			c-0.1,0.3,0.7,0.5,1.4,0.7c-0.3,0-0.5,0.1-0.5,0.2c-0.1,0.4,2.3,0.8,2.3,0.8l1.6-0.1c0.2,0.1,0.3,0.1,0.6,0.1
			c3.6,0,3.9-0.7,4.6-0.8C76.3,53.4,78.1,49.8,75.4,49.8z"/>
	</g>
</g>
</svg>
