<?xml version="1.0" encoding="utf-8"?>
<!-- Generator: Adobe Illustrator 24.0.2, SVG Export Plug-In . SVG Version: 6.00 Build 0)  -->
<svg version="1.1" id="Layer_1" xmlns="http://www.w3.org/2000/svg" xmlns:xlink="http://www.w3.org/1999/xlink" x="0px" y="0px"
	 viewBox="0 0 162 35" style="enable-background:new 0 0 162 35;" xml:space="preserve">
<style type="text/css">
	.st0{display:none;fill:url(#SVGID_1_);}
	.st1{display:none;}
	.st2{display:inline;fill:#000222;}
</style>
<linearGradient id="SVGID_1_" gradientUnits="userSpaceOnUse" x1="617.458" y1="1354.7146" x2="716.2687" y2="1355.5566" gradientTransform="matrix(1 0 0 1 -628 -1338)">
	<stop  offset="0" style="stop-color:#F78F3D"/>
	<stop  offset="0.4876" style="stop-color:#F05359"/>
	<stop  offset="1" style="stop-color:#D11F26"/>
</linearGradient>
<path class="st0" d="M53.8,15C45.6,1,29.9,1,21.7,15c2.7-7.3,9.1-12,16.1-12C44.7,3,51.1,7.7,53.8,15L53.8,15z M37.8,28.1
	c-2.6,0-5-1.3-6.5-3.2h3.9c0.8,0.4,1.7,0.7,2.6,0.7c1,0,1.9-0.2,2.6-0.7h3.1h0.7C42.8,26.8,40.5,28.1,37.8,28.1L37.8,28.1z
	 M37.8,34.6H19.9c-0.7,0-1.3-0.6-1.3-1.3l0,0c0-0.7,0.6-1.3,1.3-1.3h9.3c-0.9-0.6-1.8-1.3-2.6-2.1H13.7c-0.7,0-1.3-0.6-1.3-1.3l0,0
	c0-0.7,0.6-1.3,1.3-1.3h10.9c-0.5-0.8-0.9-1.6-1.2-2.4H8.2c-0.7,0-1.3-0.6-1.3-1.3c0-0.7,0.6-1.3,1.3-1.3h14.4h21H53
	C51.5,29.3,45.3,34.6,37.8,34.6L37.8,34.6z M27.4,19.7h26.3c2.1,0,2.3-1.2,2-2.7C54.2,8.7,48.3,2.4,39.6,1.3c-0.1-1-0.9-1.7-1.8-1.7
	S36.1,0.3,36,1.2c-2,0.2-4.1,0.9-5.2,1.4c-6.4,2.9-10,7.6-11.6,14.6H1.3c-0.7,0-1.3,0.6-1.3,1.3c0,0.7,0.6,1.3,1.3,1.3h22.6H27.4z"
	/>
<g class="st1">
	<path class="st2" d="M78.1,9.7h-8.6v5.5h7.2c0.7,0,1.2,0.1,1.5,0.4s0.5,0.7,0.5,1.2s-0.2,0.9-0.5,1.2c-0.3,0.3-0.8,0.4-1.5,0.4
		h-7.2v7.1c0,0.9-0.2,1.6-0.6,2s-0.9,0.7-1.6,0.7c-0.6,0-1.2-0.2-1.6-0.7s-0.6-1.1-0.6-2V9c0-0.6,0.1-1.1,0.3-1.5
		c0.2-0.4,0.5-0.7,0.9-0.9c0.4-0.2,0.9-0.3,1.5-0.3h10.3c0.7,0,1.2,0.2,1.5,0.5C80,7.1,80.1,7.5,80.1,8c0,0.5-0.2,0.9-0.5,1.2
		C79.3,9.5,78.8,9.7,78.1,9.7z"/>
	<path class="st2" d="M96.2,20c0,1.2-0.2,2.3-0.6,3.3s-0.9,1.9-1.6,2.6s-1.5,1.3-2.5,1.7c-1,0.4-2.1,0.6-3.3,0.6
		c-1.2,0-2.3-0.2-3.3-0.6s-1.8-0.9-2.5-1.7c-0.7-0.7-1.2-1.6-1.6-2.6c-0.4-1-0.5-2.1-0.5-3.3c0-1.2,0.2-2.3,0.6-3.3s0.9-1.9,1.6-2.6
		s1.5-1.3,2.5-1.6s2.1-0.6,3.3-0.6c1.2,0,2.3,0.2,3.3,0.6s1.8,0.9,2.5,1.7s1.2,1.6,1.6,2.6C96,17.7,96.2,18.8,96.2,20z M92.2,20
		c0-1.6-0.4-2.9-1.1-3.8c-0.7-0.9-1.7-1.4-2.9-1.4c-0.8,0-1.5,0.2-2.1,0.6s-1.1,1-1.4,1.8C84.4,18,84.3,19,84.3,20
		c0,1,0.2,2,0.5,2.7c0.3,0.8,0.8,1.4,1.4,1.8c0.6,0.4,1.3,0.6,2.1,0.6c1.2,0,2.2-0.5,2.9-1.4C91.8,22.9,92.2,21.6,92.2,20z"/>
	<path class="st2" d="M113.5,20c0,1.2-0.2,2.3-0.6,3.3s-0.9,1.9-1.6,2.6s-1.5,1.3-2.5,1.7c-1,0.4-2.1,0.6-3.3,0.6
		c-1.2,0-2.3-0.2-3.3-0.6s-1.8-0.9-2.5-1.7c-0.7-0.7-1.2-1.6-1.6-2.6c-0.4-1-0.5-2.1-0.5-3.3c0-1.2,0.2-2.3,0.6-3.3s0.9-1.9,1.6-2.6
		s1.5-1.3,2.5-1.6s2.1-0.6,3.3-0.6c1.2,0,2.3,0.2,3.3,0.6s1.8,0.9,2.5,1.7s1.2,1.6,1.6,2.6C113.4,17.7,113.5,18.8,113.5,20z
		 M109.5,20c0-1.6-0.4-2.9-1.1-3.8c-0.7-0.9-1.7-1.4-2.9-1.4c-0.8,0-1.5,0.2-2.1,0.6s-1.1,1-1.4,1.8c-0.3,0.8-0.5,1.7-0.5,2.8
		c0,1,0.2,2,0.5,2.7c0.3,0.8,0.8,1.4,1.4,1.8c0.6,0.4,1.3,0.6,2.1,0.6c1.2,0,2.2-0.5,2.9-1.4C109.2,22.9,109.5,21.6,109.5,20z"/>
	<path class="st2" d="M121,25.5v-6.8l-5.2-8.1c-0.5-0.7-0.8-1.3-1-1.7c-0.2-0.4-0.3-0.8-0.3-1.1c0-0.5,0.2-0.9,0.6-1.3
		c0.4-0.4,0.9-0.5,1.4-0.5c0.6,0,1,0.2,1.4,0.5c0.3,0.3,0.8,1,1.4,2l4,6.5l4.1-6.5c0.2-0.4,0.4-0.7,0.6-1c0.2-0.3,0.3-0.5,0.5-0.8
		c0.2-0.2,0.4-0.4,0.7-0.5s0.5-0.2,0.9-0.2c0.5,0,1,0.2,1.4,0.5c0.4,0.4,0.6,0.8,0.6,1.2c0,0.4-0.1,0.8-0.3,1.1s-0.5,0.9-1,1.6
		l-5.4,8.2v6.8c0,0.9-0.2,1.6-0.6,2s-0.9,0.7-1.6,0.7c-0.6,0-1.2-0.2-1.6-0.7S121,26.4,121,25.5z"/>
	<path class="st2" d="M143.2,21h-7.8c0,0.9,0.2,1.7,0.6,2.4c0.4,0.7,0.8,1.2,1.4,1.6s1.2,0.5,2,0.5c0.5,0,0.9-0.1,1.3-0.2
		c0.4-0.1,0.8-0.3,1.1-0.5c0.4-0.2,0.7-0.5,1-0.8s0.7-0.6,1.2-1.1c0.2-0.2,0.5-0.3,0.9-0.3c0.4,0,0.7,0.1,1,0.3s0.4,0.5,0.4,1
		c0,0.4-0.1,0.8-0.4,1.3c-0.3,0.5-0.7,0.9-1.3,1.4c-0.6,0.4-1.3,0.8-2.2,1.1c-0.9,0.3-1.9,0.4-3,0.4c-2.6,0-4.6-0.7-6-2.2
		s-2.1-3.5-2.1-6c0-1.2,0.2-2.3,0.5-3.3c0.4-1,0.9-1.9,1.5-2.6s1.5-1.3,2.5-1.7s2.1-0.6,3.3-0.6c1.6,0,2.9,0.3,4,1
		c1.1,0.7,2,1.5,2.5,2.6s0.8,2.1,0.8,3.2c0,1-0.3,1.7-0.9,2C145.1,20.9,144.3,21,143.2,21z M135.4,18.7h7.3
		c-0.1-1.4-0.5-2.4-1.1-3.1c-0.6-0.7-1.5-1-2.5-1c-1,0-1.8,0.3-2.5,1C135.9,16.4,135.5,17.4,135.4,18.7z"/>
	<path class="st2" d="M162,22.9c0,1.1-0.3,2-0.8,2.8c-0.5,0.8-1.3,1.4-2.4,1.8c-1.1,0.4-2.3,0.6-3.8,0.6c-1.4,0-2.7-0.2-3.7-0.7
		s-1.8-1-2.3-1.6c-0.5-0.7-0.7-1.3-0.7-2c0-0.4,0.2-0.8,0.5-1.1s0.7-0.5,1.2-0.5c0.4,0,0.7,0.1,1,0.3s0.4,0.5,0.6,0.9
		c0.4,0.7,0.9,1.2,1.5,1.6c0.6,0.4,1.4,0.5,2.3,0.5c0.8,0,1.5-0.2,2-0.5c0.5-0.4,0.8-0.8,0.8-1.2c0-0.7-0.3-1.2-0.8-1.5
		s-1.4-0.6-2.6-0.9c-1.4-0.3-2.5-0.7-3.4-1.1c-0.9-0.4-1.6-0.9-2.1-1.5s-0.8-1.4-0.8-2.3c0-0.8,0.2-1.6,0.7-2.3s1.2-1.3,2.1-1.7
		c0.9-0.4,2.1-0.6,3.4-0.6c1,0,2,0.1,2.8,0.3c0.8,0.2,1.5,0.5,2.1,0.9s1,0.8,1.3,1.2s0.4,0.9,0.4,1.3c0,0.5-0.2,0.8-0.5,1.1
		c-0.3,0.3-0.7,0.4-1.3,0.4c-0.4,0-0.8-0.1-1-0.4c-0.3-0.2-0.6-0.6-1-1.1c-0.3-0.4-0.7-0.7-1.1-0.9s-1-0.4-1.7-0.4
		c-0.7,0-1.3,0.2-1.8,0.5c-0.5,0.3-0.7,0.7-0.7,1.1c0,0.4,0.2,0.8,0.5,1c0.4,0.3,0.8,0.5,1.4,0.7s1.4,0.4,2.5,0.6
		c1.2,0.3,2.3,0.7,3,1.1c0.8,0.4,1.4,0.9,1.8,1.5C161.8,21.5,162,22.2,162,22.9z"/>
</g>
<image style="overflow:visible;" width="750" height="230" xlink:href="logo.png"  transform="matrix(0.1645 0 0 0.1645 0.3305 -1.2872)">
</image>
</svg>
